PathFileType	4	(X/Y/Z)	C:\Users\italobelli\Desktop\GitHub\PTbot_officialCBL\Personal_Results\FLX23_noisy1.trc
DataRate	CameraRate	NumFrames	NumMarkers	Units	OrigDataRate	OrigDataStartFrame	OrigNumFrames
106.533333	106.533333	25	9	m	106.533333	1	800
Frame#	Time		gu		centelbow		EpL		centpxt8		centijc7		ij		ts		aa		ai
			X1	Y1	Z1	X2	Y2	Z2	X3	Y3	Z3	X4	Y4	Z4	X5	Y5	Z5	X6	Y6	Z6	X7	Y7	Z7	X8	Y8	Z8	X9	Y9	Z9

1	0	-0.074706	-0.018616	0.16617	-0.13011	-0.26091	0.19201	-0.11248	-0.25811	0.21886	-0.046816	-0.15316	-0.008669	-0.046816	0.031938	-0.008669	0	0	0	-0.13497	0.026718	0.054083	-0.10524	0.019425	0.16935	-0.15399	-0.085148	0.057302
2	0.0093867	-0.074714	-0.018654	0.16617	-0.13002	-0.26116	0.19196	-0.11238	-0.25836	0.2188	-0.046816	-0.15316	-0.008669	-0.046816	0.031938	-0.008669	0	0	0	-0.13501	0.026701	0.054084	-0.10527	0.019394	0.16935	-0.15402	-0.085167	0.057288
3	0.018773	-0.074722	-0.018693	0.16617	-0.12994	-0.2614	0.19191	-0.11229	-0.2586	0.21875	-0.046816	-0.15316	-0.008669	-0.046816	0.031938	-0.008669	0	0	0	-0.13504	0.026685	0.054086	-0.1053	0.019363	0.16935	-0.15405	-0.085186	0.057274
4	0.02816	-0.074729	-0.018732	0.16616	-0.12986	-0.26165	0.19187	-0.1122	-0.25885	0.21869	-0.046816	-0.15316	-0.008669	-0.046816	0.031938	-0.008669	0	0	0	-0.13508	0.026669	0.054087	-0.10532	0.019332	0.16935	-0.15407	-0.085205	0.05726
5	0.037547	-0.074736	-0.018771	0.16616	-0.12978	-0.2619	0.19182	-0.1121	-0.25909	0.21864	-0.046816	-0.15316	-0.008669	-0.046816	0.031938	-0.008669	0	0	0	-0.13512	0.026652	0.054089	-0.10535	0.0193	0.16935	-0.1541	-0.085223	0.057247
6	0.046934	-0.074744	-0.01881	0.16616	-0.1297	-0.26215	0.19178	-0.11201	-0.25933	0.2186	-0.046816	-0.15316	-0.008669	-0.046816	0.031938	-0.008669	0	0	0	-0.13515	0.026636	0.05409	-0.10538	0.019269	0.16935	-0.15413	-0.085241	0.057235
7	0.05632	-0.074751	-0.018849	0.16616	-0.12962	-0.2624	0.19175	-0.11192	-0.25958	0.21855	-0.046816	-0.15316	-0.008669	-0.046816	0.031938	-0.008669	0	0	0	-0.13519	0.026621	0.054092	-0.10541	0.019238	0.16934	-0.15416	-0.085259	0.057223
8	0.065707	-0.074758	-0.018889	0.16616	-0.12954	-0.26264	0.19171	-0.11183	-0.25982	0.21851	-0.046816	-0.15316	-0.008669	-0.046816	0.031938	-0.008669	0	0	0	-0.13522	0.026605	0.054094	-0.10543	0.019206	0.16934	-0.15419	-0.085276	0.057212
9	0.075094	-0.074765	-0.018928	0.16616	-0.12946	-0.26289	0.19168	-0.11175	-0.26006	0.21847	-0.046816	-0.15316	-0.008669	-0.046816	0.031938	-0.008669	0	0	0	-0.13526	0.02659	0.054097	-0.10546	0.019175	0.16934	-0.15421	-0.085294	0.0572
10	0.084481	-0.074772	-0.018967	0.16616	-0.12938	-0.26314	0.19165	-0.11166	-0.26029	0.21843	-0.046816	-0.15316	-0.008669	-0.046816	0.031938	-0.008669	0	0	0	-0.13529	0.026575	0.054099	-0.10549	0.019144	0.16934	-0.15424	-0.085311	0.05719
11	0.093867	-0.074778	-0.019006	0.16616	-0.12931	-0.26338	0.19163	-0.11158	-0.26053	0.2184	-0.046816	-0.15316	-0.008669	-0.046816	0.031938	-0.008669	0	0	0	-0.13533	0.02656	0.054101	-0.10551	0.019113	0.16934	-0.15427	-0.085327	0.05718
12	0.10325	-0.074785	-0.019044	0.16616	-0.12923	-0.26363	0.1916	-0.11149	-0.26077	0.21836	-0.046816	-0.15316	-0.008669	-0.046816	0.031938	-0.008669	0	0	0	-0.13536	0.026545	0.054104	-0.10554	0.019082	0.16934	-0.1543	-0.085344	0.05717
13	0.11264	-0.074792	-0.019083	0.16616	-0.12916	-0.26387	0.19158	-0.11141	-0.261	0.21833	-0.046816	-0.15316	-0.008669	-0.046816	0.031938	-0.008669	0	0	0	-0.1354	0.026531	0.054106	-0.10556	0.019051	0.16935	-0.15432	-0.08536	0.057161
14	0.12203	-0.074798	-0.019121	0.16616	-0.12908	-0.26411	0.19156	-0.11133	-0.26123	0.21831	-0.046816	-0.15316	-0.008669	-0.046816	0.031938	-0.008669	0	0	0	-0.13543	0.026516	0.054109	-0.10559	0.019021	0.16935	-0.15435	-0.085376	0.057152
15	0.13141	-0.074804	-0.019159	0.16616	-0.12901	-0.26435	0.19155	-0.11125	-0.26146	0.21828	-0.046816	-0.15316	-0.008669	-0.046816	0.031938	-0.008669	0	0	0	-0.13547	0.026502	0.054112	-0.10561	0.018991	0.16935	-0.15438	-0.085391	0.057143
16	0.1408	-0.07481	-0.019196	0.16617	-0.12894	-0.26459	0.19153	-0.11117	-0.26169	0.21826	-0.046816	-0.15316	-0.008669	-0.046816	0.031938	-0.008669	0	0	0	-0.1355	0.026488	0.054115	-0.10564	0.018961	0.16935	-0.1544	-0.085407	0.057135
17	0.15019	-0.074817	-0.019233	0.16617	-0.12887	-0.26483	0.19152	-0.11109	-0.26192	0.21824	-0.046816	-0.15316	-0.008669	-0.046816	0.031938	-0.008669	0	0	0	-0.13553	0.026475	0.054118	-0.10566	0.018932	0.16935	-0.15443	-0.085422	0.057127
18	0.15957	-0.074823	-0.019269	0.16617	-0.12879	-0.26507	0.19151	-0.11101	-0.26214	0.21822	-0.046816	-0.15316	-0.008669	-0.046816	0.031938	-0.008669	0	0	0	-0.13556	0.026461	0.054121	-0.10569	0.018902	0.16935	-0.15445	-0.085436	0.05712
19	0.16896	-0.074828	-0.019305	0.16617	-0.12872	-0.2653	0.1915	-0.11093	-0.26237	0.21821	-0.046816	-0.15316	-0.008669	-0.046816	0.031938	-0.008669	0	0	0	-0.1356	0.026448	0.054124	-0.10571	0.018874	0.16935	-0.15448	-0.085451	0.057113
20	0.17835	-0.074834	-0.01934	0.16617	-0.12865	-0.26554	0.1915	-0.11085	-0.26259	0.2182	-0.046816	-0.15316	-0.008669	-0.046816	0.031938	-0.008669	0	0	0	-0.13563	0.026435	0.054128	-0.10574	0.018845	0.16935	-0.15451	-0.085465	0.057107
21	0.18773	-0.07484	-0.019375	0.16618	-0.12858	-0.26577	0.1915	-0.11078	-0.26281	0.21819	-0.046816	-0.15316	-0.008669	-0.046816	0.031938	-0.008669	0	0	0	-0.13566	0.026422	0.054131	-0.10576	0.018818	0.16935	-0.15453	-0.085479	0.057101
22	0.19712	-0.074846	-0.019409	0.16618	-0.12852	-0.266	0.1915	-0.1107	-0.26303	0.21818	-0.046816	-0.15316	-0.008669	-0.046816	0.031938	-0.008669	0	0	0	-0.13569	0.02641	0.054134	-0.10578	0.01879	0.16936	-0.15456	-0.085492	0.057095
23	0.20651	-0.074851	-0.019442	0.16618	-0.12845	-0.26622	0.1915	-0.11063	-0.26324	0.21817	-0.046816	-0.15316	-0.008669	-0.046816	0.031938	-0.008669	0	0	0	-0.13572	0.026398	0.054138	-0.1058	0.018764	0.16936	-0.15458	-0.085505	0.05709
24	0.21589	-0.074857	-0.019474	0.16619	-0.12838	-0.26645	0.1915	-0.11055	-0.26346	0.21817	-0.046816	-0.15316	-0.008669	-0.046816	0.031938	-0.008669	0	0	0	-0.13575	0.026385	0.054142	-0.10583	0.018737	0.16936	-0.15461	-0.085518	0.057085
25	0.22528	-0.074863	-0.019505	0.16619	-0.12831	-0.26667	0.19151	-0.11048	-0.26367	0.21817	-0.046816	-0.15316	-0.008669	-0.046816	0.031938	-0.008669	0	0	0	-0.13578	0.026374	0.054146	-0.10585	0.018712	0.16936	-0.15463	-0.085531	0.05708
